<svg version="1.1" viewBox="0.0 0.0 286.09448818897636 285.7165354330709" fill="none" stroke="none" stroke-linecap="square" stroke-miterlimit="10" xmlns:xlink="http://www.w3.org/1999/xlink" xmlns="http://www.w3.org/2000/svg"><clipPath id="p.0"><path d="m0 0l286.09448 0l0 285.71652l-286.09448 0l0 -285.71652z" clip-rule="nonzero"/></clipPath><g clip-path="url(#p.0)"><path fill="#000000" fill-opacity="0.0" d="m0 0l286.09448 0l0 285.71652l-286.09448 0z" fill-rule="evenodd"/><path fill="#000000" fill-opacity="0.0" d="m-2.6692913 -35.472443l303.65353 0l0 298.14172l-303.65353 0z" fill-rule="evenodd"/><path fill="#000000" d="m14.3932085 244.3338l8.093751 -26.484375l4.328125 1.0625q7.031248 1.875 12.531248 1.046875q5.515625 -0.8125 8.859375 -4.453125q3.34375 -3.625 4.046875 -10.1875l0.9375 -7.03125l-49.21875 -131.375l37.375 0l22.03125 67.96875q3.9843788 12.890625 6.500004 25.78125q2.53125 12.890625 5.8125 26.953125l-8.203125 0q3.15625 -14.0625 6.3125 -27.015625q3.171875 -12.953125 7.390625 -25.71875l22.96875 -67.96875l36.921867 0l-55.671867 146.48438q-3.984375 10.546875 -10.203125 18.28125q-6.203125 7.734375 -15.468754 11.953125q-9.25 4.21875 -22.375 4.21875q-7.031248 0 -13.124998 -1.0q-6.09375 -0.984375 -9.843751 -2.515625zm199.6875 -43.828125q-19.796875 0 -34.15625 -8.5q-14.359375 -8.5 -22.15625 -23.671875q-7.78125 -15.171875 -7.78125 -35.328125q0 -20.390625 7.78125 -35.5625q7.796875 -15.1875 22.15625 -23.671875q14.359375 -8.5 34.15625 -8.5q11.609375 0 21.453125 3.046875q9.84375 3.046875 17.453125 8.671875q7.6250153 5.625 12.54689 13.71875q4.921875 8.078125 6.796875 18.15625l-32.70314 6.09375q-1.046875 -5.15625 -3.28125 -9.203125q-2.21875 -4.046875 -5.390625 -6.90625q-3.15625 -2.875 -7.328125 -4.390625q-4.15625 -1.53125 -9.1875 -1.53125q-9.375 0 -15.765625 5.046875q-6.390625 5.03125 -9.609375 14.0625q-3.21875 9.015625 -3.21875 20.84375q0 11.71875 3.21875 20.6875q3.21875 8.96875 9.609375 14.125q6.390625 5.15625 15.765625 5.15625q5.03125 0 9.25 -1.578125q4.21875 -1.59375 7.5 -4.578125q3.28125 -2.984375 5.5 -7.203125q2.234375 -4.21875 3.171875 -9.5l32.70314 5.984375q-1.875 10.421875 -6.796875 18.578125q-4.921875 8.140625 -12.54689 14.0q-7.609375 5.859375 -17.515625 8.90625q-9.90625 3.046875 -21.625 3.046875z" fill-rule="nonzero"/></g></svg>